<svg width="80" height="80" viewBox="0 0 80 80" fill="none" xmlns="http://www.w3.org/2000/svg">
<circle cx="56.6668" cy="26.6666" r="13.3333" fill="#004AAD"/>
<path d="M63.4355 55.6719C63.9396 55.723 64.3337 56.1485 64.334 56.666C64.334 57.1838 63.9398 57.6099 63.4355 57.6611L63.334 57.666H16.667C16.1147 57.666 15.667 57.2183 15.667 56.666C15.6673 56.114 16.1149 55.666 16.667 55.666H63.334L63.4355 55.6719ZM47.5557 39C48.6686 39.8236 49.8969 40.4992 51.2119 41H16.667C16.1148 41 15.6672 40.5521 15.667 40C15.6672 39.4479 16.1148 39 16.667 39H47.5557ZM64.334 40C64.3338 40.5176 63.9397 40.9429 63.4355 40.9941L63.334 41H62.1211C62.8892 40.7075 63.6278 40.3559 64.3311 39.9492C64.3319 39.9661 64.334 39.9829 64.334 40ZM41.9551 22.333C41.764 22.9829 41.614 23.6504 41.5098 24.333H16.667C16.1147 24.333 15.667 23.8853 15.667 23.333C15.6672 22.7809 16.1148 22.333 16.667 22.333H41.9551ZM63.4355 22.3379C63.9397 22.389 64.3338 22.8154 64.334 23.333C64.334 23.8508 63.9398 24.2769 63.4355 24.3281L63.334 24.333H45.5752C45.7201 23.6409 45.9285 22.9724 46.1934 22.333H63.334L63.4355 22.3379Z" fill="#004AAD"/>
</svg>
